<mxfile host="Electron" agent="Mozilla/5.0 (Windows NT 10.0; Win64; x64) AppleWebKit/537.36 (KHTML, like Gecko) draw.io/27.0.2 Chrome/134.0.6998.205 Electron/35.3.0 Safari/537.36" version="27.0.2">
  <diagram name="Page-1" id="e56a1550-8fbb-45ad-956c-1786394a9013">
    <mxGraphModel dx="1000" dy="695" grid="1" gridSize="10" guides="1" tooltips="1" connect="1" arrows="1" fold="1" page="1" pageScale="1" pageWidth="1100" pageHeight="850" background="none" math="0" shadow="0">
      <root>
        <mxCell id="0" />
        <mxCell id="1" parent="0" />
        <mxCell id="adsUpj65-ifq9po-ZutE-2" value="&lt;b&gt;Product&lt;/b&gt;" style="rounded=0;whiteSpace=wrap;html=1;" parent="1" vertex="1">
          <mxGeometry x="160" y="40" width="80" height="40" as="geometry" />
        </mxCell>
        <mxCell id="adsUpj65-ifq9po-ZutE-3" value="ProductName" style="rounded=0;whiteSpace=wrap;html=1;fillColor=light-dark(#99FF99,#000000);" parent="1" vertex="1">
          <mxGeometry x="240" y="80" width="80" height="40" as="geometry" />
        </mxCell>
        <mxCell id="adsUpj65-ifq9po-ZutE-115" style="edgeStyle=orthogonalEdgeStyle;rounded=0;orthogonalLoop=1;jettySize=auto;html=1;entryX=0;entryY=0.75;entryDx=0;entryDy=0;exitX=0;exitY=0.75;exitDx=0;exitDy=0;" parent="1" source="adsUpj65-ifq9po-ZutE-4" target="adsUpj65-ifq9po-ZutE-105" edge="1">
          <mxGeometry relative="1" as="geometry">
            <mxPoint x="170" y="130" as="sourcePoint" />
            <mxPoint x="130" y="350" as="targetPoint" />
          </mxGeometry>
        </mxCell>
        <mxCell id="adsUpj65-ifq9po-ZutE-118" style="edgeStyle=orthogonalEdgeStyle;rounded=0;orthogonalLoop=1;jettySize=auto;html=1;" parent="1" source="adsUpj65-ifq9po-ZutE-4" target="adsUpj65-ifq9po-ZutE-109" edge="1">
          <mxGeometry relative="1" as="geometry">
            <mxPoint x="100" y="400" as="targetPoint" />
            <Array as="points">
              <mxPoint x="90" y="100" />
              <mxPoint x="90" y="370" />
              <mxPoint x="280" y="370" />
            </Array>
          </mxGeometry>
        </mxCell>
        <mxCell id="adsUpj65-ifq9po-ZutE-124" style="edgeStyle=orthogonalEdgeStyle;rounded=0;orthogonalLoop=1;jettySize=auto;html=1;exitX=0;exitY=0.25;exitDx=0;exitDy=0;" parent="1" source="adsUpj65-ifq9po-ZutE-4" target="adsUpj65-ifq9po-ZutE-111" edge="1">
          <mxGeometry relative="1" as="geometry">
            <mxPoint x="60" y="801.3333129882812" as="targetPoint" />
            <Array as="points">
              <mxPoint x="60" y="90" />
              <mxPoint x="60" y="630" />
              <mxPoint x="280" y="630" />
            </Array>
          </mxGeometry>
        </mxCell>
        <mxCell id="adsUpj65-ifq9po-ZutE-4" value="&lt;u&gt;ProductID&lt;/u&gt;" style="rounded=0;whiteSpace=wrap;html=1;fillColor=light-dark(#FF6666,#000000);" parent="1" vertex="1">
          <mxGeometry x="160" y="80" width="80" height="40" as="geometry" />
        </mxCell>
        <mxCell id="adsUpj65-ifq9po-ZutE-5" value="Brand" style="rounded=0;whiteSpace=wrap;html=1;fillColor=light-dark(#99FF99,#000000);" parent="1" vertex="1">
          <mxGeometry x="320" y="80" width="80" height="40" as="geometry" />
        </mxCell>
        <mxCell id="adsUpj65-ifq9po-ZutE-6" value="Description" style="rounded=0;whiteSpace=wrap;html=1;fillColor=light-dark(#99FF99,#000000);" parent="1" vertex="1">
          <mxGeometry x="400" y="80" width="80" height="40" as="geometry" />
        </mxCell>
        <mxCell id="adsUpj65-ifq9po-ZutE-8" value="ImageURL" style="rounded=0;whiteSpace=wrap;html=1;fillColor=light-dark(#99FF99,#000000);" parent="1" vertex="1">
          <mxGeometry x="480" y="80" width="80" height="40" as="geometry" />
        </mxCell>
        <mxCell id="adsUpj65-ifq9po-ZutE-12" value="&lt;b&gt;Category&lt;/b&gt;" style="rounded=0;whiteSpace=wrap;html=1;" parent="1" vertex="1">
          <mxGeometry x="160" y="160" width="80" height="40" as="geometry" />
        </mxCell>
        <mxCell id="adsUpj65-ifq9po-ZutE-13" value="" style="rounded=0;whiteSpace=wrap;html=1;" parent="1" vertex="1">
          <mxGeometry x="160" y="200" width="160" height="40" as="geometry" />
        </mxCell>
        <mxCell id="adsUpj65-ifq9po-ZutE-14" value="CategoryID" style="rounded=0;whiteSpace=wrap;html=1;fillColor=light-dark(#FF6666,#000000);" parent="1" vertex="1">
          <mxGeometry x="160" y="200" width="80" height="40" as="geometry" />
        </mxCell>
        <mxCell id="adsUpj65-ifq9po-ZutE-15" value="&lt;b&gt;Review&lt;/b&gt;" style="rounded=0;whiteSpace=wrap;html=1;" parent="1" vertex="1">
          <mxGeometry x="160" y="400" width="80" height="40" as="geometry" />
        </mxCell>
        <mxCell id="adsUpj65-ifq9po-ZutE-16" value="" style="rounded=0;whiteSpace=wrap;html=1;" parent="1" vertex="1">
          <mxGeometry x="160" y="440" width="320" height="40" as="geometry" />
        </mxCell>
        <mxCell id="adsUpj65-ifq9po-ZutE-17" value="Date" style="rounded=0;whiteSpace=wrap;html=1;fillColor=light-dark(#99FF99,#000000);" parent="1" vertex="1">
          <mxGeometry x="400" y="440" width="80" height="40" as="geometry" />
        </mxCell>
        <mxCell id="adsUpj65-ifq9po-ZutE-18" value="&lt;u&gt;ReviewID&lt;/u&gt;" style="rounded=0;whiteSpace=wrap;html=1;fillColor=light-dark(#FF6666,#000000);" parent="1" vertex="1">
          <mxGeometry x="160" y="440" width="80" height="40" as="geometry" />
        </mxCell>
        <mxCell id="adsUpj65-ifq9po-ZutE-19" value="Rating" style="rounded=0;whiteSpace=wrap;html=1;fillColor=light-dark(#99FF99,#000000);" parent="1" vertex="1">
          <mxGeometry x="480" y="440" width="80" height="40" as="geometry" />
        </mxCell>
        <mxCell id="adsUpj65-ifq9po-ZutE-20" value="Comment" style="rounded=0;whiteSpace=wrap;html=1;fillColor=light-dark(#99FF99,#000000);" parent="1" vertex="1">
          <mxGeometry x="560" y="440" width="80" height="40" as="geometry" />
        </mxCell>
        <mxCell id="adsUpj65-ifq9po-ZutE-23" value="&lt;b&gt;Listing&lt;/b&gt;" style="rounded=0;whiteSpace=wrap;html=1;" parent="1" vertex="1">
          <mxGeometry x="160" y="640" width="80" height="40" as="geometry" />
        </mxCell>
        <mxCell id="adsUpj65-ifq9po-ZutE-24" value="" style="rounded=0;whiteSpace=wrap;html=1;" parent="1" vertex="1">
          <mxGeometry x="160" y="680" width="320" height="40" as="geometry" />
        </mxCell>
        <mxCell id="adsUpj65-ifq9po-ZutE-25" value="Date" style="rounded=0;whiteSpace=wrap;html=1;fillColor=light-dark(#99FF99,#000000);" parent="1" vertex="1">
          <mxGeometry x="400" y="680" width="80" height="40" as="geometry" />
        </mxCell>
        <mxCell id="adsUpj65-ifq9po-ZutE-26" value="&lt;u&gt;ListingID&lt;/u&gt;" style="rounded=0;whiteSpace=wrap;html=1;fillColor=light-dark(#FF6666,#000000);" parent="1" vertex="1">
          <mxGeometry x="160" y="680" width="80" height="40" as="geometry" />
        </mxCell>
        <mxCell id="adsUpj65-ifq9po-ZutE-27" value="Price" style="rounded=0;whiteSpace=wrap;html=1;fillColor=light-dark(#99FF99,#000000);" parent="1" vertex="1">
          <mxGeometry x="480" y="680" width="80" height="40" as="geometry" />
        </mxCell>
        <mxCell id="adsUpj65-ifq9po-ZutE-28" value="Quantity" style="rounded=0;whiteSpace=wrap;html=1;fillColor=light-dark(#99FF99,#000000);" parent="1" vertex="1">
          <mxGeometry x="560" y="680" width="80" height="40" as="geometry" />
        </mxCell>
        <mxCell id="adsUpj65-ifq9po-ZutE-33" value="&lt;b&gt;Retailer&lt;/b&gt;" style="rounded=0;whiteSpace=wrap;html=1;" parent="1" vertex="1">
          <mxGeometry x="160" y="760" width="80" height="40" as="geometry" />
        </mxCell>
        <mxCell id="adsUpj65-ifq9po-ZutE-34" value="" style="rounded=0;whiteSpace=wrap;html=1;" parent="1" vertex="1">
          <mxGeometry x="160" y="800" width="240" height="40" as="geometry" />
        </mxCell>
        <mxCell id="adsUpj65-ifq9po-ZutE-35" value="RetailerName" style="rounded=0;whiteSpace=wrap;html=1;fillColor=light-dark(#99FF99,#000000);" parent="1" vertex="1">
          <mxGeometry x="240" y="800" width="80" height="40" as="geometry" />
        </mxCell>
        <mxCell id="adsUpj65-ifq9po-ZutE-125" style="edgeStyle=orthogonalEdgeStyle;rounded=0;orthogonalLoop=1;jettySize=auto;html=1;entryX=0.5;entryY=1;entryDx=0;entryDy=0;" parent="1" source="adsUpj65-ifq9po-ZutE-36" target="adsUpj65-ifq9po-ZutE-112" edge="1">
          <mxGeometry relative="1" as="geometry">
            <Array as="points">
              <mxPoint x="120" y="820" />
              <mxPoint x="120" y="740" />
              <mxPoint x="360" y="740" />
            </Array>
          </mxGeometry>
        </mxCell>
        <mxCell id="adsUpj65-ifq9po-ZutE-36" value="RetailerID" style="rounded=0;whiteSpace=wrap;html=1;fillColor=light-dark(#FF6666,#000000);" parent="1" vertex="1">
          <mxGeometry x="160" y="800" width="80" height="40" as="geometry" />
        </mxCell>
        <mxCell id="adsUpj65-ifq9po-ZutE-37" value="Country" style="rounded=0;whiteSpace=wrap;html=1;fillColor=light-dark(#99FF99,#000000);" parent="1" vertex="1">
          <mxGeometry x="320" y="800" width="80" height="40" as="geometry" />
        </mxCell>
        <mxCell id="adsUpj65-ifq9po-ZutE-89" value="CategoryName" style="rounded=0;whiteSpace=wrap;html=1;fillColor=light-dark(#99FF99,#000000);" parent="1" vertex="1">
          <mxGeometry x="240" y="200" width="90" height="40" as="geometry" />
        </mxCell>
        <mxCell id="adsUpj65-ifq9po-ZutE-91" value="URL" style="rounded=0;whiteSpace=wrap;html=1;fillColor=light-dark(#99FF99,#000000);" parent="1" vertex="1">
          <mxGeometry x="400" y="800" width="80" height="40" as="geometry" />
        </mxCell>
        <mxCell id="adsUpj65-ifq9po-ZutE-92" value="&lt;b&gt;User&lt;/b&gt;" style="rounded=0;whiteSpace=wrap;html=1;" parent="1" vertex="1">
          <mxGeometry x="160" y="520" width="80" height="40" as="geometry" />
        </mxCell>
        <mxCell id="adsUpj65-ifq9po-ZutE-93" value="" style="rounded=0;whiteSpace=wrap;html=1;" parent="1" vertex="1">
          <mxGeometry x="160" y="560" width="320" height="40" as="geometry" />
        </mxCell>
        <mxCell id="adsUpj65-ifq9po-ZutE-94" value="UserName" style="rounded=0;whiteSpace=wrap;html=1;fillColor=light-dark(#99FF99,#000000);" parent="1" vertex="1">
          <mxGeometry x="240" y="560" width="80" height="40" as="geometry" />
        </mxCell>
        <mxCell id="adsUpj65-ifq9po-ZutE-122" style="edgeStyle=orthogonalEdgeStyle;rounded=0;orthogonalLoop=1;jettySize=auto;html=1;entryX=0.5;entryY=1;entryDx=0;entryDy=0;" parent="1" source="adsUpj65-ifq9po-ZutE-95" target="adsUpj65-ifq9po-ZutE-110" edge="1">
          <mxGeometry relative="1" as="geometry">
            <Array as="points">
              <mxPoint x="140" y="580" />
              <mxPoint x="140" y="500" />
              <mxPoint x="360" y="500" />
            </Array>
          </mxGeometry>
        </mxCell>
        <mxCell id="adsUpj65-ifq9po-ZutE-95" value="&lt;u&gt;UserID&lt;/u&gt;" style="rounded=0;whiteSpace=wrap;html=1;fillColor=light-dark(#FF6666,#000000);" parent="1" vertex="1">
          <mxGeometry x="160" y="560" width="80" height="40" as="geometry" />
        </mxCell>
        <mxCell id="adsUpj65-ifq9po-ZutE-96" value="Email" style="rounded=0;whiteSpace=wrap;html=1;fillColor=light-dark(#99FF99,#000000);" parent="1" vertex="1">
          <mxGeometry x="320" y="560" width="80" height="40" as="geometry" />
        </mxCell>
        <mxCell id="adsUpj65-ifq9po-ZutE-97" value="Password" style="rounded=0;whiteSpace=wrap;html=1;fillColor=light-dark(#99FF99,#000000);" parent="1" vertex="1">
          <mxGeometry x="400" y="560" width="80" height="40" as="geometry" />
        </mxCell>
        <mxCell id="adsUpj65-ifq9po-ZutE-98" value="Role" style="rounded=0;whiteSpace=wrap;html=1;fillColor=light-dark(#99FF99,#000000);" parent="1" vertex="1">
          <mxGeometry x="480" y="560" width="80" height="40" as="geometry" />
        </mxCell>
        <mxCell id="adsUpj65-ifq9po-ZutE-99" value="&lt;b&gt;Product-Category&lt;/b&gt;" style="rounded=0;whiteSpace=wrap;html=1;" parent="1" vertex="1">
          <mxGeometry x="160" y="270" width="80" height="40" as="geometry" />
        </mxCell>
        <mxCell id="adsUpj65-ifq9po-ZutE-119" style="edgeStyle=orthogonalEdgeStyle;rounded=0;orthogonalLoop=1;jettySize=auto;html=1;entryX=0.75;entryY=1;entryDx=0;entryDy=0;" parent="1" source="adsUpj65-ifq9po-ZutE-100" target="adsUpj65-ifq9po-ZutE-14" edge="1">
          <mxGeometry relative="1" as="geometry">
            <Array as="points">
              <mxPoint x="280" y="260" />
              <mxPoint x="220" y="260" />
            </Array>
          </mxGeometry>
        </mxCell>
        <mxCell id="adsUpj65-ifq9po-ZutE-100" value="CategoryID" style="rounded=0;whiteSpace=wrap;html=1;fillColor=light-dark(#33FFFF,#000000);" parent="1" vertex="1">
          <mxGeometry x="240" y="310" width="80" height="40" as="geometry" />
        </mxCell>
        <mxCell id="adsUpj65-ifq9po-ZutE-105" value="ProductID" style="rounded=0;whiteSpace=wrap;html=1;fillColor=light-dark(#33FFFF,#000000);" parent="1" vertex="1">
          <mxGeometry x="160" y="310" width="80" height="40" as="geometry" />
        </mxCell>
        <mxCell id="adsUpj65-ifq9po-ZutE-109" value="ProductID" style="rounded=0;whiteSpace=wrap;html=1;fillColor=light-dark(#33FFFF,#000000);" parent="1" vertex="1">
          <mxGeometry x="240" y="440" width="80" height="40" as="geometry" />
        </mxCell>
        <mxCell id="adsUpj65-ifq9po-ZutE-110" value="UserID" style="rounded=0;whiteSpace=wrap;html=1;fillColor=light-dark(#33FFFF,#000000);" parent="1" vertex="1">
          <mxGeometry x="320" y="440" width="80" height="40" as="geometry" />
        </mxCell>
        <mxCell id="adsUpj65-ifq9po-ZutE-111" value="ProductID" style="rounded=0;whiteSpace=wrap;html=1;fillColor=light-dark(#33FFFF,#000000);" parent="1" vertex="1">
          <mxGeometry x="240" y="680" width="80" height="40" as="geometry" />
        </mxCell>
        <mxCell id="adsUpj65-ifq9po-ZutE-112" value="RetailerID" style="rounded=0;whiteSpace=wrap;html=1;fillColor=light-dark(#33FFFF,#000000);" parent="1" vertex="1">
          <mxGeometry x="320" y="680" width="80" height="40" as="geometry" />
        </mxCell>
      </root>
    </mxGraphModel>
  </diagram>
</mxfile>
